<svg version="1.1" id="Layer_1" xmlns="http://www.w3.org/2000/svg" xmlns:xlink="http://www.w3.org/1999/xlink" x="0px" y="0px"
	 width="100%" viewBox="0 0 500 500" enable-background="new 0 0 500 500" xml:space="preserve">
<path fill="#FFFFFF" opacity="1.000000" stroke="none" 
	d="
M238.000000,501.000000 
	C158.666687,501.000000 79.833374,501.000000 1.000042,501.000000 
	C1.000028,334.333405 1.000028,167.666779 1.000014,1.000132 
	C167.666565,1.000088 334.333130,1.000088 500.999756,1.000044 
	C500.999847,167.666519 500.999847,334.333038 500.999939,500.999786 
	C413.500000,501.000000 326.000000,501.000000 238.000000,501.000000 
M207.277756,241.456833 
	C207.926834,241.598938 208.569260,241.803513 209.226013,241.873489 
	C215.828873,242.576965 215.829758,242.570755 215.830338,249.498856 
	C215.830750,254.512360 215.830429,259.525848 215.830429,265.308624 
	C217.288879,264.221008 217.861221,263.888367 218.319092,263.439056 
	C233.087708,248.947098 250.950775,242.511597 271.496368,241.837082 
	C284.520935,241.409485 295.316193,229.587448 295.837982,216.402054 
	C296.147217,208.588181 296.137115,200.743240 295.845459,192.928116 
	C295.329010,179.091049 285.338470,167.693695 271.588409,167.049271 
	C252.157700,166.138626 232.629471,165.737717 213.210327,166.613464 
	C195.445740,167.414597 186.059814,178.722183 186.054565,196.426788 
	C186.052795,202.421432 186.013687,208.416443 186.067215,214.410629 
	C186.185226,227.625351 193.702637,237.470367 207.277756,241.456833 
M230.883835,140.015411 
	C216.683289,142.603210 206.227814,152.643814 207.398865,162.410110 
	C210.229401,162.274673 213.048294,162.029205 215.867722,162.023056 
	C232.697098,161.986374 249.526688,161.974457 266.356049,162.012695 
	C286.967407,162.059540 300.046906,175.110672 300.209656,195.753418 
	C300.253632,201.332764 300.216309,206.912750 300.216309,213.278198 
	C310.393280,207.671112 315.324982,199.757584 315.805389,189.186920 
	C316.115234,182.368912 315.968628,175.525055 315.875458,168.694824 
	C315.639923,151.422882 304.132080,140.060944 286.792969,140.008133 
	C268.463989,139.952301 250.134766,139.997040 230.883835,140.015411 
M257.676086,288.022491 
	C255.742935,287.164459 253.809769,286.306427 251.328751,285.205231 
	C251.328751,298.603302 251.328751,310.775940 251.328751,323.117584 
	C253.608047,322.992584 255.525467,322.887451 257.924652,322.755920 
	C256.248840,315.151764 259.126251,309.974579 265.342010,306.165924 
	C268.008240,310.228180 270.897217,313.922882 273.001648,318.020569 
	C275.462952,322.812988 278.946747,324.013306 284.257629,322.474762 
	C279.363068,315.335938 274.548767,308.314209 268.595062,299.630615 
	C273.770874,295.378845 278.856201,291.201385 284.232880,286.784607 
	C277.943970,284.845642 274.218842,286.897125 270.853394,291.036377 
	C267.064972,295.695831 262.692352,299.880310 257.688873,305.214935 
	C257.688873,298.828583 257.688873,293.881470 257.676086,288.022491 
M210.386108,302.932373 
	C208.513321,298.149902 206.783569,293.302551 204.664780,288.631653 
	C204.150116,287.497070 202.400620,286.402283 201.133469,286.294617 
	C200.125534,286.208954 198.423523,287.422028 197.993561,288.458435 
	C193.299789,299.772614 188.795853,311.165527 184.282379,322.431915 
	C191.794617,325.623291 192.554535,319.821198 194.079437,315.306854 
	C207.421829,314.177399 207.421829,314.177399 211.579056,322.821533 
	C213.686905,322.821533 215.798950,322.821533 218.285660,322.821533 
	C215.697021,316.219788 213.225006,309.915527 210.386108,302.932373 
M295.647766,295.379486 
	C298.084564,290.458008 300.558716,290.381165 306.660278,295.139526 
	C308.115875,294.209625 309.615021,293.251892 311.104370,292.300415 
	C307.851074,286.804169 303.185028,284.673431 297.176483,286.043091 
	C292.539581,287.100098 289.460144,289.859009 288.982269,294.847015 
	C288.497742,299.903870 290.862915,302.941376 297.323120,305.812988 
	C299.595062,306.822906 302.079254,307.561432 304.031616,309.010010 
	C305.279083,309.935608 306.646210,312.197113 306.306732,313.388763 
	C305.873444,314.909668 303.958405,316.650360 302.356964,317.077484 
	C297.318359,318.421326 294.187744,315.774597 292.722931,310.940277 
	C290.516724,311.575958 288.668152,312.108612 286.852020,312.631927 
	C288.344330,320.280060 294.104034,324.069885 302.474731,323.205139 
	C309.187531,322.511688 313.368683,317.988983 313.190674,311.772827 
	C313.034790,306.329681 309.095612,304.287720 305.044708,302.099182 
	C301.821777,300.358002 298.831909,298.185547 295.647766,295.379486 
M324.894501,302.794647 
	C330.325897,308.608063 327.762421,316.040863 328.730194,322.833496 
	C329.908478,322.903229 330.895599,323.023865 331.879761,323.003296 
	C332.973267,322.980438 334.064087,322.828857 336.064301,322.653900 
	C331.231171,307.353088 343.589447,298.203186 348.604889,286.460693 
	C343.166016,285.038361 339.861176,286.754150 337.787018,291.756622 
	C336.339783,295.247040 333.972168,298.355835 331.837830,301.933136 
	C331.172852,300.929779 330.973022,300.662018 330.808075,300.374268 
	C329.074402,297.349701 327.344696,294.322845 325.617157,291.294800 
	C322.242859,285.380371 322.243683,285.379883 315.095825,286.840973 
	C318.265442,292.004578 321.381897,297.081665 324.894501,302.794647 
M158.752594,286.114349 
	C157.145432,286.114349 155.538269,286.114349 153.798447,286.114349 
	C153.798447,288.391357 153.798447,290.125061 153.798447,292.301697 
	C157.680389,292.301697 161.260284,292.301697 165.269867,292.301697 
	C165.269867,302.806824 165.269867,312.870697 165.269867,323.106689 
	C167.651749,322.986847 169.572678,322.890167 172.009415,322.767578 
	C172.009415,312.343445 172.009415,302.299500 172.009415,291.965027 
	C175.980515,291.965027 179.410904,291.965027 182.885681,291.965027 
	C182.885681,289.862518 182.885681,288.086426 182.885681,286.114349 
	C174.990082,286.114349 167.340866,286.114349 158.752594,286.114349 
M229.932571,313.549286 
	C229.932571,304.476990 229.932571,295.404694 229.932571,286.395416 
	C227.371750,286.395416 225.457260,286.395416 223.436691,286.395416 
	C223.436691,298.695465 223.436691,310.713257 223.436691,322.717102 
	C230.954803,322.717102 238.172165,322.717102 245.396362,322.717102 
	C245.396362,320.658691 245.396362,318.911774 245.396362,316.798553 
	C241.181229,316.798553 237.207962,316.962677 233.263733,316.696472 
	C232.112503,316.618744 231.044067,315.314636 229.932571,313.549286 
z"/>
<path fill="#A161FF" opacity="1.000000" stroke="none" 
	d="
M206.878815,241.341278 
	C193.702637,237.470367 186.185226,227.625351 186.067215,214.410629 
	C186.013687,208.416443 186.052795,202.421432 186.054565,196.426788 
	C186.059814,178.722183 195.445740,167.414597 213.210327,166.613464 
	C232.629471,165.737717 252.157700,166.138626 271.588409,167.049271 
	C285.338470,167.693695 295.329010,179.091049 295.845459,192.928116 
	C296.137115,200.743240 296.147217,208.588181 295.837982,216.402054 
	C295.316193,229.587448 284.520935,241.409485 271.496368,241.837082 
	C250.950775,242.511597 233.087708,248.947098 218.319092,263.439056 
	C217.861221,263.888367 217.288879,264.221008 215.830429,265.308624 
	C215.830429,259.525848 215.830750,254.512360 215.830338,249.498856 
	C215.829758,242.570755 215.828873,242.576965 209.226013,241.873489 
	C208.569260,241.803513 207.926834,241.598938 206.878815,241.341278 
z"/>
<path fill="#03E4E3" opacity="1.000000" stroke="none" 
	d="
M231.344742,140.006622 
	C250.134766,139.997040 268.463989,139.952301 286.792969,140.008133 
	C304.132080,140.060944 315.639923,151.422882 315.875458,168.694824 
	C315.968628,175.525055 316.115234,182.368912 315.805389,189.186920 
	C315.324982,199.757584 310.393280,207.671112 300.216309,213.278198 
	C300.216309,206.912750 300.253632,201.332764 300.209656,195.753418 
	C300.046906,175.110672 286.967407,162.059540 266.356049,162.012695 
	C249.526688,161.974457 232.697098,161.986374 215.867722,162.023056 
	C213.048294,162.029205 210.229401,162.274673 207.398865,162.410110 
	C206.227814,152.643814 216.683289,142.603210 231.344742,140.006622 
z"/>
<path fill="#0F0A27" opacity="1.000000" stroke="none" 
	d="
M257.682495,288.478424 
	C257.688873,293.881470 257.688873,298.828583 257.688873,305.214935 
	C262.692352,299.880310 267.064972,295.695831 270.853394,291.036377 
	C274.218842,286.897125 277.943970,284.845642 284.232880,286.784607 
	C278.856201,291.201385 273.770874,295.378845 268.595062,299.630615 
	C274.548767,308.314209 279.363068,315.335938 284.257629,322.474762 
	C278.946747,324.013306 275.462952,322.812988 273.001648,318.020569 
	C270.897217,313.922882 268.008240,310.228180 265.342010,306.165924 
	C259.126251,309.974579 256.248840,315.151764 257.924652,322.755920 
	C255.525467,322.887451 253.608047,322.992584 251.328751,323.117584 
	C251.328751,310.775940 251.328751,298.603302 251.328751,285.205231 
	C253.809769,286.306427 255.742935,287.164459 257.682495,288.478424 
z"/>
<path fill="#0F0A27" opacity="1.000000" stroke="none" 
	d="
M210.569550,303.271790 
	C213.225006,309.915527 215.697021,316.219788 218.285660,322.821533 
	C215.798950,322.821533 213.686905,322.821533 211.579056,322.821533 
	C207.421829,314.177399 207.421829,314.177399 194.079437,315.306854 
	C192.554535,319.821198 191.794617,325.623291 184.282379,322.431915 
	C188.795853,311.165527 193.299789,299.772614 197.993561,288.458435 
	C198.423523,287.422028 200.125534,286.208954 201.133469,286.294617 
	C202.400620,286.402283 204.150116,287.497070 204.664780,288.631653 
	C206.783569,293.302551 208.513321,298.149902 210.569550,303.271790 
M197.835251,309.255676 
	C200.450409,309.255676 203.065552,309.255676 206.158279,309.255676 
	C204.529877,304.827393 203.107391,300.959106 201.147888,295.630432 
	C199.481079,301.015472 198.270554,304.926300 197.835251,309.255676 
z"/>
<path fill="#0F0A27" opacity="1.000000" stroke="none" 
	d="
M295.693176,295.792023 
	C298.831909,298.185547 301.821777,300.358002 305.044708,302.099182 
	C309.095612,304.287720 313.034790,306.329681 313.190674,311.772827 
	C313.368683,317.988983 309.187531,322.511688 302.474731,323.205139 
	C294.104034,324.069885 288.344330,320.280060 286.852020,312.631927 
	C288.668152,312.108612 290.516724,311.575958 292.722931,310.940277 
	C294.187744,315.774597 297.318359,318.421326 302.356964,317.077484 
	C303.958405,316.650360 305.873444,314.909668 306.306732,313.388763 
	C306.646210,312.197113 305.279083,309.935608 304.031616,309.010010 
	C302.079254,307.561432 299.595062,306.822906 297.323120,305.812988 
	C290.862915,302.941376 288.497742,299.903870 288.982269,294.847015 
	C289.460144,289.859009 292.539581,287.100098 297.176483,286.043091 
	C303.185028,284.673431 307.851074,286.804169 311.104370,292.300415 
	C309.615021,293.251892 308.115875,294.209625 306.660278,295.139526 
	C300.558716,290.381165 298.084564,290.458008 295.693176,295.792023 
z"/>
<path fill="#0F0A27" opacity="1.000000" stroke="none" 
	d="
M324.696442,302.476685 
	C321.381897,297.081665 318.265442,292.004578 315.095825,286.840973 
	C322.243683,285.379883 322.242859,285.380371 325.617157,291.294800 
	C327.344696,294.322845 329.074402,297.349701 330.808075,300.374268 
	C330.973022,300.662018 331.172852,300.929779 331.837830,301.933136 
	C333.972168,298.355835 336.339783,295.247040 337.787018,291.756622 
	C339.861176,286.754150 343.166016,285.038361 348.604889,286.460693 
	C343.589447,298.203186 331.231171,307.353088 336.064301,322.653900 
	C334.064087,322.828857 332.973267,322.980438 331.879761,323.003296 
	C330.895599,323.023865 329.908478,322.903229 328.730194,322.833496 
	C327.762421,316.040863 330.325897,308.608063 324.696442,302.476685 
z"/>
<path fill="#120D2A" opacity="1.000000" stroke="none" 
	d="
M159.222137,286.114349 
	C167.340866,286.114349 174.990082,286.114349 182.885681,286.114349 
	C182.885681,288.086426 182.885681,289.862518 182.885681,291.965027 
	C179.410904,291.965027 175.980515,291.965027 172.009415,291.965027 
	C172.009415,302.299500 172.009415,312.343445 172.009415,322.767578 
	C169.572678,322.890167 167.651749,322.986847 165.269867,323.106689 
	C165.269867,312.870697 165.269867,302.806824 165.269867,292.301697 
	C161.260284,292.301697 157.680389,292.301697 153.798447,292.301697 
	C153.798447,290.125061 153.798447,288.391357 153.798447,286.114349 
	C155.538269,286.114349 157.145432,286.114349 159.222137,286.114349 
z"/>
<path fill="#120D2A" opacity="1.000000" stroke="none" 
	d="
M229.935120,314.060974 
	C231.044067,315.314636 232.112503,316.618744 233.263733,316.696472 
	C237.207962,316.962677 241.181229,316.798553 245.396362,316.798553 
	C245.396362,318.911774 245.396362,320.658691 245.396362,322.717102 
	C238.172165,322.717102 230.954803,322.717102 223.436691,322.717102 
	C223.436691,310.713257 223.436691,298.695465 223.436691,286.395416 
	C225.457260,286.395416 227.371750,286.395416 229.932571,286.395416 
	C229.932571,295.404694 229.932571,304.476990 229.935120,314.060974 
z"/>
<path fill="#F1F1F3" opacity="1.000000" stroke="none" 
	d="
M197.447647,309.046387 
	C198.270554,304.926300 199.481079,301.015472 201.147888,295.630432 
	C203.107391,300.959106 204.529877,304.827393 206.158279,309.255676 
	C203.065552,309.255676 200.450409,309.255676 197.447647,309.046387 
z"/>
</svg>